<?xml version="1.0" standalone="no"?>
<!DOCTYPE svg PUBLIC "-//W3C//DTD SVG 20010904//EN"
 "http://www.w3.org/TR/2001/REC-SVG-20010904/DTD/svg10.dtd">
<svg version="1.0" xmlns="http://www.w3.org/2000/svg"
 width="290.000000pt" height="290.000000pt" viewBox="0 0 290.000000 290.000000"
 preserveAspectRatio="xMidYMid meet">
<metadata>
Created by potrace 1.11, written by Peter Selinger 2001-2013
</metadata>
<g transform="translate(0.000000,290.000000) scale(0.100000,-0.100000)"
fill="#000000" stroke="none">
<path d="M1468 2735 c-2 -2 -38 -5 -81 -6 -71 -2 -114 -7 -204 -23 -130 -24
-317 -104 -453 -194 -97 -64 -254 -216 -322 -312 -86 -122 -179 -323 -203
-438 -33 -157 -38 -223 -33 -442 0 -8 9 -60 20 -115 50 -257 165 -472 353
-660 147 -148 328 -260 511 -316 79 -25 78 -24 239 -54 44 -8 340 -4 340 5 0
1 9 3 20 4 103 14 263 65 369 118 333 167 582 478 669 838 32 132 39 187 37
325 -1 117 -2 125 -25 246 -73 373 -334 713 -683 888 -135 68 -305 116 -452
127 -36 3 -73 7 -82 8 -9 2 -18 2 -20 1z"/>
</g>
</svg>
