<?xml version="1.0" standalone="no"?>
<!DOCTYPE svg PUBLIC "-//W3C//DTD SVG 20010904//EN"
 "http://www.w3.org/TR/2001/REC-SVG-20010904/DTD/svg10.dtd">
<svg version="1.0" xmlns="http://www.w3.org/2000/svg"
 width="300.000000pt" height="300.000000pt" viewBox="0 0 300.000000 300.000000"
 preserveAspectRatio="xMidYMid meet">
<metadata>
Created by potrace 1.14, written by Peter Selinger 2001-2017
</metadata>
<g transform="translate(0.000000,300.000000) scale(0.100000,-0.100000)"
fill="#000000" stroke="none">
<path d="M262 1853 c2 -10 13 -19 26 -21 29 -4 29 -4 -18 -342 -42 -296 -46
-310 -92 -310 -11 0 -18 -7 -18 -20 0 -19 7 -20 155 -20 146 0 155 1 155 19 0
13 -8 21 -22 23 -21 3 -23 8 -22 58 0 30 6 95 13 144 l13 88 54 -4 c63 -5 89
-25 99 -74 4 -26 11 -34 23 -32 13 3 20 27 34 118 22 151 22 150 -2 150 -13 0
-22 -9 -26 -25 -3 -14 -20 -36 -36 -50 -24 -20 -41 -25 -84 -25 -30 0 -54 2
-54 4 0 22 42 281 46 288 4 6 40 9 91 6 102 -5 131 -23 152 -92 22 -69 44 -59
55 27 7 54 13 67 27 67 9 0 19 -5 21 -11 7 -21 -80 -609 -92 -624 -7 -8 -23
-15 -36 -15 -17 0 -24 -6 -24 -20 0 -20 7 -20 279 -20 l278 0 7 40 c3 22 9 40
12 40 3 0 19 -10 36 -21 41 -30 140 -59 198 -59 26 0 76 9 111 20 267 84 345
419 143 610 -82 78 -128 95 -254 95 -94 0 -111 -3 -161 -28 -191 -93 -266
-346 -153 -519 30 -47 30 -49 -3 -80 -40 -38 -74 -48 -162 -48 l-78 0 43 296
c23 162 45 306 48 319 4 16 14 25 33 27 17 2 29 10 31 21 3 16 -22 17 -423 17
-401 0 -426 -1 -423 -17z"/>
<path d="M1785 1860 c-8 -13 3 -30 19 -30 8 0 19 -7 26 -14 6 -8 42 -163 79
-343 l67 -328 60 -3 60 -3 51 113 c29 62 71 154 94 203 l42 90 17 -115 c10
-63 23 -154 30 -202 l12 -88 63 0 c41 0 65 4 68 13 48 116 272 628 283 644 8
12 29 26 47 31 18 5 33 16 35 25 3 16 -8 17 -120 15 -100 -2 -123 -6 -123 -18
0 -8 13 -17 31 -20 47 -10 56 -19 49 -48 -9 -35 -165 -405 -176 -416 -6 -6 -9
-2 -9 10 0 10 -11 109 -24 219 -26 209 -24 231 16 237 13 2 24 11 26 21 3 16
-10 17 -157 17 -138 0 -161 -2 -161 -15 0 -9 11 -20 24 -25 32 -12 34 -15 46
-99 l12 -71 -67 -143 c-37 -78 -70 -146 -74 -150 -8 -8 -91 386 -91 429 0 13
11 25 32 35 17 8 34 20 36 27 5 15 -313 18 -323 2z"/>
</g>
</svg>
