<svg width="38" height="29" viewBox="0 0 38 29" fill="none" xmlns="http://www.w3.org/2000/svg">
<path opacity="0.5" d="M38 21.4245C38 23.7129 37.2083 25.5673 35.625 26.9878C34.1208 28.3293 32.2208 29 29.925 29C26.9958 29 24.7 28.0925 23.0375 26.2776C21.375 24.3837 20.5437 21.898 20.5437 18.8204C20.5437 15.6639 21.0188 12.981 21.9688 10.7714C22.9979 8.5619 24.1854 6.74693 25.5313 5.32653C26.9563 3.82721 28.4208 2.68299 29.925 1.89387C31.4292 1.02585 32.7354 0.394557 33.8438 0L37.6437 6.39183C36.0604 7.02313 34.7146 8.04898 33.6063 9.46939C32.4979 10.8109 31.8646 12.2707 31.7063 13.849C33.2896 13.849 34.7146 14.5592 35.9813 15.9796C37.3271 17.3211 38 19.1361 38 21.4245ZM17.4562 21.4245C17.4562 23.7129 16.6646 25.5673 15.0813 26.9878C13.5771 28.3293 11.6771 29 9.38125 29C6.45208 29 4.15625 28.0925 2.49375 26.2776C0.83125 24.3837 0 21.898 0 18.8204C0 15.6639 0.475 12.981 1.425 10.7714C2.45417 8.5619 3.64167 6.74693 4.9875 5.32653C6.4125 3.82721 7.87708 2.68299 9.38125 1.89387C10.8854 1.02585 12.1917 0.394557 13.3 0L17.1 6.39183C15.5167 7.02313 14.1708 8.04898 13.0625 9.46939C11.9542 10.8109 11.3208 12.2707 11.1625 13.849C12.7458 13.849 14.1708 14.5592 15.4375 15.9796C16.7833 17.3211 17.4562 19.1361 17.4562 21.4245Z" fill="white"/>
</svg>
