<svg width="260" height="50" viewBox="0 0 260 50" fill="none" xmlns="http://www.w3.org/2000/svg">
<path d="M76.5461 3.78463C80.4691 1.3115 85.0195 -0.00116812 89.6655 4.48284e-06C93.6053 -0.00237205 97.4874 0.940203 100.982 2.74765C104.477 4.5551 107.481 7.17401 109.739 10.3819C111.997 13.5897 113.442 17.2918 113.952 21.1735C114.462 25.0552 114.021 29.0018 112.667 32.6781C111.314 36.3543 109.087 39.6516 106.176 42.2897C103.266 44.9279 99.757 46.8289 95.9486 47.8314C92.1403 48.8339 88.1446 48.9081 84.3012 48.0478C80.4578 47.1876 76.8801 45.4182 73.8722 42.89L72.7143 48.6424H35.894L36.2761 46.1459C40.0623 45.8007 40.4792 45.5131 40.8265 43.4998L46.2106 5.14266C46.4654 3.31339 46.1875 2.92223 43.4202 2.6001L42.3781 11.9535H39.8655C39.2981 6.05154 36.5771 3.19835 31.5404 3.19835H22.7985L19.927 23.1707H23.7711C27.5342 23.1707 30.7646 21.8247 32.1657 16.2678H34.7361L32.2467 33.8702H29.7341C29.8731 28.3594 27.071 26.9673 23.2964 26.9673H19.4522L17.1365 43.4998C16.7891 45.5246 17.206 45.8007 20.8417 46.1459L20.4943 48.6424H0L0.347361 46.1459C4.12202 45.8007 4.55043 45.5131 4.8978 43.4998L10.2819 5.15417C10.5598 3.12932 10.2124 2.8532 6.57671 2.50806L6.8546 4.48284e-06H63.2777L63.0577 2.53107C59.2714 2.87621 58.7851 3.16383 58.5072 5.17718L52.7179 45.4441H60.6145C64.806 45.4441 68.0134 44.029 70.8038 39.8297C67.8413 36.2736 65.9585 31.9532 65.3754 27.3733C64.7924 22.7935 65.5332 18.1433 67.5113 13.9662C69.4894 9.78917 72.623 6.25775 76.5461 3.78463Z" fill="#1A1A1A"/>
<path d="M128.292 48.9991L141.029 21.4795L144.954 48.9876H153.059L171.423 6.31615C172.685 3.47446 173.739 3.18684 177.652 2.49655L177.999 0H161.789L161.442 2.49655C166.965 3.18684 168.227 3.8081 166.409 8.05338L155.108 34.8136H154.969L151.612 6.94892C151.172 3.41693 152.237 2.92223 155.803 2.50805L156.15 0.0115048H135.17L134.822 2.50805C137.613 3.12931 138.597 3.41693 138.945 5.77542L140.102 14.4616L130.538 34.8021H130.399L124.807 6.93741C124.101 3.54349 125.432 2.91072 128.998 2.49655L129.346 0H108.087L107.74 2.48504C110.808 3.1063 111.376 3.39392 111.862 5.75241L120.743 48.9991H128.292Z" fill="#1A1A1A"/>
</svg>
