<svg width="100" height="28" viewBox="0 0 100 28" fill="none" xmlns="http://www.w3.org/2000/svg">
<path d="M43.0035 2.1262C45.2075 0.736802 47.7639 -0.00065625 50.374 2.51846e-06C52.5874 -0.00133261 54.7684 0.528205 56.7317 1.54363C58.695 2.55905 60.3826 4.03035 61.6511 5.83253C62.9197 7.63471 63.7317 9.71451 64.0181 11.8952C64.3046 14.076 64.057 16.2932 63.2965 18.3585C62.536 20.4238 61.285 22.2762 59.6498 23.7583C58.0145 25.2405 56.0434 26.3085 53.9039 26.8717C51.7643 27.4348 49.5196 27.4766 47.3604 26.9932C45.2011 26.5099 43.1912 25.5159 41.5013 24.0956L40.8509 27.3273H20.1652L20.3799 25.9247C22.507 25.7308 22.7412 25.5692 22.9363 24.4381L25.9611 2.88914C26.1042 1.86146 25.9481 1.64171 24.3934 1.46073L23.808 6.71548H22.3964C22.0777 3.39975 20.549 1.79683 17.7194 1.79683H12.8082L11.195 13.0173H13.3546C15.4687 13.0173 17.2836 12.2611 18.0706 9.13926H19.5147L18.1162 19.0283H16.7046C16.7827 15.9323 15.2085 15.1502 13.0879 15.1502H10.9283L9.62727 24.4381C9.43212 25.5757 9.6663 25.7308 11.7088 25.9247L11.5137 27.3273H0L0.195147 25.9247C2.31575 25.7308 2.55643 25.5692 2.75158 24.4381L5.77636 2.89561C5.93248 1.75805 5.73733 1.60293 3.69479 1.40902L3.85091 2.51846e-06H35.5493L35.4258 1.42195C33.2986 1.61585 33.0254 1.77744 32.8693 2.90853L29.6169 25.5305H34.0532C36.408 25.5305 38.2099 24.7355 39.7775 22.3763C38.1132 20.3785 37.0554 17.9513 36.7279 15.3783C36.4003 12.8053 36.8165 10.1929 37.9278 7.84622C39.0391 5.49955 40.7996 3.5156 43.0035 2.1262Z" fill="white"/>
<path d="M72.0744 27.5276L79.2298 12.0672L81.435 27.5212H85.9884L96.3052 3.54841C97.0142 1.95195 97.6062 1.79036 99.8048 1.40256L100 0H90.8931L90.698 1.40256C93.8008 1.79036 94.5099 2.13939 93.4886 4.52438L87.1398 19.5583H87.0617L85.1753 3.9039C84.9281 1.91963 85.5266 1.6417 87.5301 1.40902L87.7252 0.0064634H75.9383L75.7432 1.40902C77.3109 1.75805 77.8638 1.91963 78.0589 3.24463L78.7094 8.1245L73.3364 19.5518H73.2583L70.1164 3.89743C69.7196 1.99073 70.4677 1.63524 72.4712 1.40256L72.6664 0H60.7233L60.5282 1.3961C62.252 1.74512 62.5707 1.9067 62.8439 3.2317L67.8332 27.5276H72.0744Z" fill="white"/>
</svg>
