<svg width="260" height="50" viewBox="0 0 260 50" fill="none" xmlns="http://www.w3.org/2000/svg">
<path d="M76.5461 3.78463C80.4691 1.3115 85.0195 -0.00116812 89.6655 4.48284e-06C93.6053 -0.00237205 97.4874 0.940203 100.982 2.74765C104.477 4.5551 107.481 7.17401 109.739 10.3819C111.997 13.5897 113.442 17.2918 113.952 21.1735C114.462 25.0552 114.021 29.0018 112.667 32.6781C111.314 36.3543 109.087 39.6516 106.176 42.2897C103.266 44.9279 99.757 46.8289 95.9486 47.8314C92.1403 48.8339 88.1446 48.9081 84.3012 48.0478C80.4578 47.1876 76.8801 45.4182 73.8722 42.89L72.7143 48.6424H35.894L36.2761 46.1459C40.0623 45.8007 40.4792 45.5131 40.8265 43.4998L46.2106 5.14266C46.4654 3.31339 46.1875 2.92223 43.4202 2.6001L42.3781 11.9535H39.8655C39.2981 6.05154 36.5771 3.19835 31.5404 3.19835H22.7985L19.927 23.1707H23.7711C27.5342 23.1707 30.7646 21.8247 32.1657 16.2678H34.7361L32.2467 33.8702H29.7341C29.8731 28.3594 27.071 26.9673 23.2964 26.9673H19.4522L17.1365 43.4998C16.7891 45.5246 17.206 45.8007 20.8417 46.1459L20.4943 48.6424H0L0.347361 46.1459C4.12202 45.8007 4.55043 45.5131 4.8978 43.4998L10.2819 5.15417C10.5598 3.12932 10.2124 2.8532 6.57671 2.50806L6.8546 4.48284e-06H63.2777L63.0577 2.53107C59.2714 2.87621 58.7851 3.16383 58.5072 5.17718L52.7179 45.4441H60.6145C64.806 45.4441 68.0134 44.029 70.8038 39.8297C67.8413 36.2736 65.9585 31.9532 65.3754 27.3733C64.7924 22.7935 65.5332 18.1433 67.5113 13.9662C69.4894 9.78917 72.623 6.25775 76.5461 3.78463Z" fill="#1A1A1A"/>
<path d="M128.292 48.9991L141.029 21.4795L144.954 48.9876H153.059L171.423 6.31615C172.685 3.47446 173.739 3.18684 177.652 2.49655L177.999 0H161.789L161.442 2.49655C166.965 3.18684 168.227 3.8081 166.409 8.05338L155.108 34.8136H154.969L151.612 6.94892C151.172 3.41693 152.237 2.92223 155.803 2.50805L156.15 0.0115048H135.17L134.822 2.50805C137.613 3.12931 138.597 3.41693 138.945 5.77542L140.102 14.4616L130.538 34.8021H130.399L124.807 6.93741C124.101 3.54349 125.432 2.91072 128.998 2.49655L129.346 0H108.087L107.74 2.48504C110.808 3.1063 111.376 3.39392 111.862 5.75241L120.743 48.9991H128.292Z" fill="#1A1A1A"/>
<path d="M177.629 32.4436C177.651 32.6458 177.69 32.8459 177.745 33.0419L177.884 33.8012C177.919 33.9408 177.942 34.0832 177.953 34.2269C177.953 34.3546 177.988 34.4779 178.021 34.5915C178.041 34.6619 178.06 34.729 178.069 34.7906C178.185 35.4349 178.312 36.0676 178.474 36.7349C178.552 37.0553 178.601 37.2431 178.63 37.3569L178.63 37.3584C178.662 37.4803 178.671 37.5164 178.671 37.5403C178.671 37.5863 178.671 37.7358 178.741 37.8509C178.776 37.9434 178.799 38.0401 178.81 38.1385C178.843 38.2381 178.871 38.3138 178.892 38.368C178.913 38.4266 178.926 38.4602 178.926 38.4722C178.996 38.5747 179.051 38.6872 179.088 38.8058L179.181 39.1394L179.25 38.8058C179.29 38.7228 179.313 38.633 179.319 38.5412C179.511 37.8735 179.697 37.2814 179.881 36.6975C180.11 35.9738 180.334 35.2615 180.558 34.434C180.558 34.434 180.628 34.1463 180.732 33.7207C180.925 33.0841 181.091 32.5855 181.23 32.225C181.271 32.1008 181.326 31.9813 181.392 31.8684V31.7073C181.416 31.639 181.447 31.5735 181.485 31.5117C181.522 31.4986 181.563 31.4986 181.6 31.5117C181.681 31.517 181.763 31.517 181.844 31.5117C181.913 31.5205 181.983 31.5205 182.052 31.5117H182.191C182.294 31.4896 182.401 31.4896 182.504 31.5117H182.805C182.823 31.5912 182.823 31.6739 182.805 31.7533V31.8914C182.818 31.9714 182.818 32.053 182.805 32.133C182.824 32.305 182.824 32.4787 182.805 32.6507V33.2605C182.79 33.5134 182.79 33.7669 182.805 34.0198V37.0456C182.814 37.2103 182.814 37.3755 182.805 37.5403C182.813 37.6052 182.813 37.6709 182.805 37.7358V41.0837C182.815 41.2024 182.815 41.3217 182.805 41.4404V41.8201C182.789 42.0806 182.789 42.3418 182.805 42.6024C182.813 42.7058 182.813 42.8096 182.805 42.913V43.9369C182.814 44.0479 182.814 44.1596 182.805 44.2706V46.7671C182.805 47.0317 182.805 47.3424 182.735 47.9176C182.739 48.3031 182.708 48.6881 182.643 49.0681C182.643 49.1601 182.492 49.2062 182.214 49.2062H181.786C181.612 49.2062 181.519 49.2062 181.496 49.1141V47.1698C181.507 47.0358 181.507 46.9011 181.496 46.7671V45.4441C181.483 45.2794 181.483 45.114 181.496 44.9494C181.511 44.7042 181.511 44.4583 181.496 44.2131V43.1201C181.505 42.986 181.505 42.8515 181.496 42.7174V42.2918C181.506 42.1808 181.506 42.0691 181.496 41.9581C181.482 41.7052 181.482 41.4517 181.496 41.1988C181.511 40.9306 181.511 40.6617 181.496 40.3935V38.6102C181.506 38.4531 181.506 38.2956 181.496 38.1385V36.2862L181.404 36.4243L181.207 37.1031V37.2987C181.092 37.5421 181.003 37.7965 180.941 38.058L180.882 38.2623C180.794 38.5669 180.724 38.8078 180.686 38.9784C180.617 39.1918 180.555 39.3868 180.5 39.5632L180.499 39.5665L180.498 39.5684C180.338 40.0738 180.227 40.4248 180.142 40.6121C179.978 41.0677 179.858 41.5377 179.783 42.0156C179.716 42.4345 179.611 42.8465 179.47 43.2467C179.47 43.3157 179.354 43.3617 179.181 43.3617C179.143 43.3649 179.105 43.3604 179.069 43.3485C179.033 43.3367 179 43.3177 178.972 43.2927C178.885 43.1958 178.818 43.0823 178.775 42.959C178.775 42.959 178.775 42.821 178.683 42.6944C178.632 42.6119 178.593 42.5229 178.567 42.4298C178.567 42.3966 178.551 42.3688 178.534 42.3398C178.516 42.3086 178.497 42.2761 178.497 42.2342C178.459 42.149 178.427 42.0604 178.405 41.9696V41.728C178.405 41.728 178.405 41.613 178.312 41.4174C178.24 41.2762 178.189 41.1249 178.162 40.9687L177.918 40.1404L177.629 39.0934L177.154 37.3562L176.818 36.2057V37.7474C176.806 37.9849 176.806 38.2231 176.818 38.4607V49.2637C176.818 49.3787 176.703 49.4593 176.436 49.4593L175.996 49.4708C175.916 49.4872 175.833 49.4872 175.753 49.4708C175.487 49.4017 175.371 49.3327 175.348 49.2522V49.1371C175.334 49.0805 175.334 49.0212 175.348 48.9646V45.6857C175.358 45.544 175.358 45.4017 175.348 45.26V44.5927C175.362 44.3705 175.362 44.1477 175.348 43.9254C175.368 43.6267 175.368 43.3269 175.348 43.0281C175.332 42.7215 175.332 42.4143 175.348 42.1077V36.5278C175.348 35.7455 175.348 35.0782 175.417 34.4915C175.457 34.1577 175.474 33.8313 175.49 33.5272C175.502 33.2969 175.513 33.0791 175.533 32.8808C175.525 32.8159 175.525 32.7502 175.533 32.6852V32.5011C175.546 32.4638 175.546 32.4235 175.533 32.3861V31.8684C175.533 31.7994 175.695 31.7763 176.031 31.7763C176.197 31.7647 176.363 31.7647 176.529 31.7763C176.64 31.7618 176.753 31.7618 176.865 31.7763C177.177 31.8454 177.34 31.9144 177.34 31.9949C177.361 32.1614 177.392 32.3265 177.432 32.4896L177.629 32.4436Z" fill="#1A1A1A"/>
<path fill-rule="evenodd" clip-rule="evenodd" d="M188.93 32.3056C188.706 32.1721 188.474 32.0529 188.235 31.9489L188.328 31.9604C188.289 31.9549 188.244 31.9468 188.193 31.9376C188.033 31.9083 187.813 31.8684 187.54 31.8684C187.357 31.8869 187.175 31.9177 186.996 31.9604C186.513 32.081 186.075 32.3365 185.734 32.6967C185.635 32.8109 185.553 32.9388 185.491 33.0764C185.451 33.1453 185.42 33.2187 185.398 33.295C185.38 33.387 185.349 33.476 185.306 33.5596C185.267 33.6671 185.244 33.7794 185.236 33.8932C185.167 34.0543 185.167 34.2039 185.167 34.3189C185.074 34.8251 185.074 35.1358 185.074 35.2278C185.063 35.3952 185.05 35.5727 185.036 35.7602C184.989 36.3717 184.935 37.0897 184.935 37.9084C184.945 38.0655 184.945 38.223 184.935 38.3801V42.5334C184.95 42.7133 184.95 42.8942 184.935 43.0741C184.92 43.2502 184.92 43.4272 184.935 43.6033V44.029C184.945 44.1323 184.945 44.2363 184.935 44.3396C184.95 44.4504 184.95 44.5625 184.935 44.6733C184.967 44.8137 184.99 44.9559 185.005 45.099V46.376C185.069 46.9349 185.173 47.4886 185.317 48.0327C185.376 48.2395 185.445 48.443 185.526 48.6424C185.576 48.8113 185.668 48.9654 185.792 49.0911C185.835 49.1335 185.874 49.1797 185.908 49.2292C185.941 49.2794 185.98 49.3257 186.024 49.3672C186.233 49.4877 186.459 49.5769 186.695 49.6319C186.953 49.6946 187.217 49.7331 187.482 49.7469H187.691C188.103 49.7531 188.513 49.6949 188.907 49.5743C188.96 49.5291 189.024 49.4975 189.092 49.4823C189.16 49.4671 189.224 49.4355 189.277 49.3903C189.347 49.3702 189.414 49.3391 189.474 49.2982L189.59 49.1832C189.688 49.0435 189.77 48.893 189.833 48.7345C189.931 48.5344 190.012 48.3266 190.076 48.1132C190.076 48.0952 190.071 48.0717 190.066 48.043C190.049 47.9621 190.025 47.8405 190.076 47.6875C190.125 47.5431 190.128 47.4714 190.133 47.3553C190.136 47.305 190.139 47.2463 190.146 47.1698C190.15 47.1159 190.158 47.0527 190.166 46.9805C190.195 46.714 190.238 46.3267 190.238 45.8468V36.827C190.297 35.6605 190.152 34.4928 189.81 33.3755C189.694 33.1693 189.566 32.9696 189.428 32.7773C189.287 32.5956 189.119 32.4365 188.93 32.3056ZM186.417 34.7676C186.406 34.7223 186.406 34.6749 186.417 34.6296L186.44 34.5605C186.498 33.7322 186.799 33.3295 187.401 33.3295C187.637 33.3347 187.868 33.3979 188.073 33.5136C188.268 33.6084 188.433 33.7559 188.548 33.9393C188.771 34.6455 188.861 35.3865 188.814 36.1252V37.0226C188.799 37.1794 188.799 37.3374 188.814 37.4943V40.6351C188.829 40.8956 188.829 41.1569 188.814 41.4174V41.7856C188.825 41.9196 188.825 42.0542 188.814 42.1882C188.831 42.4027 188.831 42.6181 188.814 42.8325V45.214C188.83 45.5206 188.83 45.8278 188.814 46.1344C188.797 46.6532 188.731 47.1693 188.617 47.676C188.588 47.7789 188.536 47.8742 188.466 47.9556C188.396 48.037 188.31 48.1025 188.212 48.1477C188.098 48.1936 187.976 48.2171 187.853 48.2168C187.771 48.2228 187.688 48.2116 187.61 48.1839C187.532 48.1561 187.461 48.1124 187.401 48.0557C187.265 47.9621 187.151 47.8404 187.066 47.699C186.968 47.5054 186.894 47.3007 186.846 47.0893C186.713 46.8309 186.63 46.5498 186.602 46.2609C186.545 45.9065 186.507 45.5494 186.487 45.191C186.417 44.098 186.417 43.2237 186.417 42.5334C186.403 42.3688 186.403 42.2033 186.417 42.0387C186.402 41.9126 186.402 41.7851 186.417 41.659C186.402 41.5098 186.402 41.3595 186.417 41.2103V37.2066C186.436 37.0576 186.436 36.907 186.417 36.758V36.2172C186.427 36.1601 186.427 36.1018 186.417 36.0447C186.408 35.9837 186.408 35.9216 186.417 35.8606C186.433 35.7576 186.433 35.6529 186.417 35.5499V35.4234C186.405 35.3627 186.405 35.3 186.417 35.2393C186.43 35.0823 186.43 34.9246 186.417 34.7676Z" fill="#1A1A1A"/>
<path d="M197.996 34.5145C198.01 34.7828 198.01 35.0515 197.996 35.3198V35.8951C197.98 36.0134 197.98 36.1334 197.996 36.2517C197.986 36.4088 197.986 36.5663 197.996 36.7234V36.8154C197.988 36.9419 197.988 37.0687 197.996 37.1951V40.9917C198.01 41.1486 198.01 41.3065 197.996 41.4634V43.2236C198.003 43.3578 198.003 43.4922 197.996 43.6263C197.987 43.7527 197.987 43.8796 197.996 44.006V44.7193C197.982 45.2661 197.936 45.8116 197.857 46.353L197.695 47.0663C197.695 47.1609 197.63 47.2933 197.548 47.4599C197.51 47.5363 197.469 47.62 197.429 47.7105L197.023 48.3088C196.974 48.4052 196.912 48.4943 196.838 48.5734C196.739 48.6342 196.656 48.7169 196.595 48.815C196.43 48.9464 196.256 49.0656 196.074 49.1716C195.674 49.3682 195.235 49.4743 194.789 49.4823C194.54 49.4893 194.291 49.4662 194.048 49.4132C193.819 49.3489 193.6 49.2521 193.399 49.1256C193.132 48.9358 192.917 48.6827 192.774 48.3893C192.599 47.9372 192.449 47.4764 192.322 47.0087C192.312 46.9543 192.302 46.9012 192.293 46.8495L192.27 46.7291L192.269 46.7259L192.269 46.7246L192.268 46.7223C192.22 46.4684 192.177 46.2486 192.16 46.0538C192.121 45.8837 192.098 45.7104 192.091 45.5361C192.091 45.2486 192.091 45.0414 192.021 44.8688C191.929 43.8948 191.882 42.8516 191.882 41.7395C191.882 40.3282 191.856 39.0856 191.831 37.8712L191.831 37.8698V37.8636C191.815 37.1008 191.799 36.3486 191.79 35.5729V32.9383C191.78 32.835 191.78 32.731 191.79 32.6277C191.776 32.5361 191.776 32.4431 191.79 32.3516V31.9719C191.79 31.9719 191.929 31.9029 192.195 31.8569H192.508C192.676 31.8716 192.843 31.9024 193.006 31.9489H193.098C193.237 31.9489 193.341 31.9489 193.341 32.1215V37.4022C193.351 37.5823 193.351 37.7628 193.341 37.9429V39.3005C193.332 39.4269 193.332 39.5538 193.341 39.6802V41.4174C193.341 42.2174 193.399 42.9018 193.445 43.4354L193.457 43.5803V45.237C193.468 45.294 193.468 45.3525 193.457 45.4096V45.5246C193.447 45.5856 193.447 45.6477 193.457 45.7087C193.465 45.7544 193.465 45.801 193.457 45.8467V46.0308C193.465 46.0765 193.465 46.1232 193.457 46.1689L193.527 46.5485V46.7901C193.57 47.039 193.652 47.2797 193.77 47.5034C193.851 47.6242 193.961 47.7224 194.091 47.7889C194.22 47.8553 194.365 47.8877 194.511 47.8831H194.847C195.043 47.8237 195.222 47.717 195.368 47.5725C195.555 47.3936 195.729 47.2013 195.889 46.9972C196 46.7308 196.082 46.453 196.132 46.1689C196.123 46.131 196.123 46.0917 196.132 46.0538V45.8698C196.132 45.5839 196.151 45.2788 196.173 44.9374C196.192 44.633 196.214 44.2996 196.224 43.9254V34.0428C196.21 33.8513 196.21 33.659 196.224 33.4675V32.0179L196.294 31.9489H197.371C197.417 31.9396 197.464 31.9396 197.51 31.9489C197.51 32.0064 197.527 32.446 197.547 32.959C197.568 33.4726 197.591 34.0598 197.602 34.4109L197.996 34.5145Z" fill="#1A1A1A"/>
<path d="M201.307 32.7888C201.28 32.7251 201.257 32.6598 201.238 32.5932L201.226 32.6852V32.4896C201.083 32.3702 200.912 32.2873 200.729 32.248H200.37C200.266 32.2307 200.16 32.2307 200.057 32.248C199.814 32.2825 199.814 32.3516 199.814 32.4206V34.3189C199.824 34.4145 199.824 34.5109 199.814 34.6065V37.1951C199.828 37.4403 199.828 37.6862 199.814 37.9314V46.8362C199.797 46.939 199.797 47.0439 199.814 47.1468C199.797 47.2574 199.797 47.3698 199.814 47.4804V47.9061C199.807 47.9364 199.807 47.9678 199.814 47.9981C199.827 48.228 199.827 48.4585 199.814 48.6884C199.798 48.853 199.798 49.0186 199.814 49.1831C199.814 49.2292 199.837 49.3212 200.15 49.3212H201.273V46.0538C201.273 44.2131 201.296 42.7404 201.365 41.6705V39.3695C201.353 39.1206 201.384 38.8715 201.458 38.6332V38.7713L201.747 39.9793C201.751 40.0406 201.751 40.1021 201.747 40.1633C201.772 40.2463 201.803 40.3271 201.84 40.405C201.91 40.497 201.91 40.6005 201.91 40.6696C201.918 40.7908 201.941 40.9105 201.979 41.0262C202.017 41.1418 202.04 41.2616 202.048 41.3829C202.129 41.5481 202.191 41.7218 202.234 41.9006L202.326 42.2342C202.535 42.9705 202.708 43.4882 202.824 43.7989L203.206 44.8228L203.542 45.7432L203.901 46.7211L204.26 47.768C204.267 47.7887 204.273 47.8165 204.28 47.8497C204.296 47.9276 204.319 48.0348 204.376 48.1477L204.388 48.172L204.402 48.1993L204.43 48.2514C204.493 48.3712 204.549 48.4787 204.549 48.5504C204.588 48.6647 204.634 48.7762 204.688 48.884C204.722 48.997 204.777 49.1025 204.851 49.1946C204.904 49.2553 204.972 49.3026 205.047 49.3327C205.23 49.4004 205.421 49.4467 205.615 49.4708H206.124C206.263 49.4478 206.263 49.3787 206.263 49.3787C206.331 49.2545 206.37 49.1171 206.379 48.976C206.366 48.9076 206.366 48.8374 206.379 48.769V48.3433C206.393 48.2171 206.393 48.0898 206.379 47.9636C206.392 47.8297 206.392 47.6949 206.379 47.561V45.7087C206.369 45.5516 206.369 45.3941 206.379 45.237V44.7423C206.396 44.4012 206.396 44.0594 206.379 43.7183V43.3157C206.395 43.1242 206.395 42.9319 206.379 42.7404C206.394 42.5913 206.394 42.4409 206.379 42.2917V42.0501C206.37 41.9622 206.37 41.8735 206.379 41.7855C206.379 41.6935 206.309 38.848 206.171 33.249C206.167 33.0249 206.144 32.8016 206.101 32.5817C206.116 32.5018 206.116 32.42 206.101 32.3401C206.101 32.3279 206.101 32.3174 206.102 32.3083L206.103 32.2954L206.104 32.2824C206.105 32.2743 206.106 32.2674 206.107 32.261C206.112 32.2335 206.115 32.2147 206.101 32.1445C206.078 32.0294 205.939 31.9604 205.696 31.9604L205.221 31.8914C205.164 31.8751 205.104 31.8751 205.047 31.8914C204.804 31.9374 204.688 32.0179 204.688 32.11V32.4896C204.67 32.5691 204.67 32.6518 204.688 32.7312C204.68 32.8 204.68 32.8695 204.688 32.9383C204.702 33.0105 204.702 33.0847 204.688 33.1569L204.885 39.4385C204.876 39.5496 204.876 39.6612 204.885 39.7722C204.895 39.8832 204.895 39.9948 204.885 40.1058V41.9696C204.87 42.2609 204.87 42.5527 204.885 42.844C204.901 43.0968 204.901 43.3504 204.885 43.6033C204.891 43.6914 204.891 43.7798 204.885 43.8679V44.0405C204.877 44.0862 204.877 44.1329 204.885 44.1785V44.6732C204.416 43.763 204.055 42.8016 203.808 41.8085L203.67 41.4059C203.602 41.2172 203.544 41.0252 203.496 40.8306C203.393 40.5644 203.327 40.2859 203.299 40.0023C203.22 39.5588 203.1 39.1236 202.94 38.7022L202.697 37.8969C202.641 37.7153 202.595 37.531 202.558 37.3447L202.222 36.0446C202.139 35.7592 202.07 35.5497 202.017 35.3912C201.959 35.2175 201.922 35.1049 201.91 35.0207C201.901 34.9579 201.881 34.8933 201.86 34.8257C201.828 34.7199 201.794 34.6063 201.794 34.48C201.773 34.3512 201.742 34.2242 201.701 34.1003C201.674 34.0151 201.646 33.9359 201.621 33.8637C201.562 33.6924 201.516 33.5599 201.516 33.479C201.472 33.3639 201.441 33.2443 201.423 33.1224C201.402 33.0475 201.375 32.9851 201.353 32.9328C201.327 32.8725 201.307 32.8257 201.307 32.7888Z" fill="#1A1A1A"/>
<path d="M210.733 32.1215H211.578C211.72 32.1298 211.864 32.1298 212.006 32.1215H213.037C213.202 32.1058 213.369 32.1058 213.535 32.1215C213.657 32.14 213.777 32.1709 213.894 32.2135C213.894 32.2135 213.963 32.3286 213.963 32.5012V32.6162C213.995 32.741 214.018 32.8679 214.032 32.9959C214.018 33.1066 214.018 33.2188 214.032 33.3295C214.032 33.3985 213.963 33.4445 213.847 33.4445C213.829 33.4521 213.809 33.4561 213.789 33.4561C213.769 33.4561 213.75 33.4521 213.731 33.4445H213.419C213.338 33.4595 213.256 33.4595 213.176 33.4445H211.196L211.288 37.8049V42.8095C211.358 45.7777 211.381 47.8141 211.381 48.9531C211.381 49.1716 211.138 49.2637 210.686 49.2637C210.235 49.2637 209.922 49.1947 209.922 49.0566C209.898 48.7003 209.898 48.3429 209.922 47.9867C209.905 47.8452 209.905 47.7024 209.922 47.561V46.7786C209.911 46.6985 209.911 46.6172 209.922 46.537V45.8007C209.907 45.5479 209.907 45.2943 209.922 45.0414C209.922 44.3511 209.922 43.7874 209.853 42.1192V37.7013C209.863 37.5366 209.863 37.3714 209.853 37.2066V34.526C209.861 34.3766 209.861 34.2268 209.853 34.0773V33.6977C209.862 33.6755 209.862 33.6508 209.853 33.6286V33.5596H209.227C209.154 33.5684 209.08 33.5684 209.007 33.5596C208.919 33.5542 208.83 33.5542 208.741 33.5596C208.63 33.5411 208.516 33.5411 208.405 33.5596C208.016 33.5586 207.629 33.5201 207.247 33.4445C207.238 33.3566 207.238 33.2679 207.247 33.1799V32.7773C207.237 32.6663 207.237 32.5546 207.247 32.4436C207.255 32.3418 207.287 32.2432 207.34 32.156H207.409C207.455 32.1452 207.503 32.1452 207.548 32.156H207.641C207.76 32.1696 207.881 32.1696 208 32.156C208.096 32.1702 208.193 32.1702 208.289 32.156C208.432 32.1692 208.575 32.1692 208.718 32.156C208.996 32.1414 209.274 32.1414 209.551 32.156H210.536C210.605 32.147 210.675 32.147 210.744 32.156L210.733 32.1215Z" fill="#1A1A1A"/>
<path fill-rule="evenodd" clip-rule="evenodd" d="M219.254 48.3778L219.011 48.5619C218.992 48.9813 219.059 49.4002 219.208 49.7929C219.208 49.931 219.347 50 219.706 50C219.813 49.9941 219.919 49.9708 220.019 49.931L220.447 49.8619C220.485 49.8503 220.52 49.8416 220.55 49.8339C220.639 49.8115 220.69 49.7984 220.69 49.7469V49.2752C220.628 48.7085 220.601 48.3791 220.577 48.0738C220.552 47.7594 220.529 47.4703 220.47 46.9742C220.412 46.636 220.381 46.2935 220.378 45.9503V45.8583C220.378 45.786 220.355 45.6017 220.318 45.2975L220.318 45.2964C220.302 45.1649 220.283 45.0111 220.262 44.8343C220.248 44.7102 220.229 44.5838 220.21 44.4553C220.167 44.1671 220.123 43.8674 220.123 43.5573L219.903 41.8776C219.887 41.7226 219.869 41.5589 219.85 41.386C219.787 40.8149 219.713 40.1441 219.66 39.358L219.59 38.5527L219.521 37.4022C219.536 37.1493 219.536 36.8958 219.521 36.6429C219.53 36.4107 219.506 36.1784 219.451 35.9526V34.48C219.461 34.3613 219.461 34.242 219.451 34.1233C219.445 34.0122 219.445 33.9008 219.451 33.7897C219.429 33.5892 219.383 33.3921 219.312 33.203V33.0649C219.299 32.7156 219.233 32.3704 219.116 32.041C218.488 31.7764 217.817 31.632 217.136 31.6153C216.736 31.6153 216.708 31.6333 216.627 31.6851C216.616 31.6919 216.605 31.6993 216.591 31.7073C216.532 31.7211 216.475 31.7465 216.426 31.7821C216.376 31.8176 216.334 31.8626 216.302 31.9144C216.26 32.1697 216.163 32.4628 216.048 32.8139C215.908 33.238 215.74 33.747 215.607 34.3764C215.571 34.508 215.547 34.6429 215.538 34.7791C215.445 34.9862 215.445 35.1588 215.445 35.2738C215.338 35.8152 215.233 36.2924 215.131 36.7551L215.131 36.7567C214.934 37.6503 214.748 38.49 214.588 39.6341L214.472 40.3935L214.38 40.7961V41.1758C214.369 41.4551 214.33 41.7326 214.264 42.0041L214.125 42.8555L214.032 43.4998C214.005 43.7012 213.966 43.9009 213.917 44.098C213.824 44.3626 213.824 44.5697 213.824 44.7423C213.755 45.145 213.65 45.8353 213.581 46.6866C213.511 47.538 213.407 48.1822 213.338 48.5849C213.33 48.744 213.306 48.9019 213.268 49.0566V49.5283C213.291 49.7009 213.511 49.7009 213.963 49.7009H214.276C214.414 49.6992 214.55 49.6759 214.681 49.6318C214.874 49.0711 214.987 48.4864 215.017 47.8946C215.079 47.6462 215.11 47.3912 215.109 47.1353V46.9972C215.113 46.9826 215.116 46.9659 215.117 46.9474C215.119 46.9371 215.12 46.9262 215.12 46.9148L215.122 46.8898C215.129 46.7965 215.138 46.6751 215.202 46.5485C215.251 46.4507 215.255 46.3496 215.257 46.266C215.26 46.1923 215.262 46.1322 215.295 46.0999C215.364 46.0308 215.364 45.8469 215.364 45.5823V44.8688C215.369 44.7386 215.397 44.6103 215.445 44.4892C215.668 44.458 215.894 44.458 216.117 44.4892C216.19 44.4988 216.264 44.4988 216.337 44.4892H216.811C216.915 44.4987 217.02 44.4987 217.124 44.4892H218.016C218.326 44.5018 218.635 44.5326 218.942 44.5812C218.957 44.649 218.977 44.8644 219.012 45.2372C219.03 45.4341 219.053 45.6759 219.081 45.9618C219.118 46.3378 219.157 46.6499 219.189 46.9032C219.227 47.208 219.254 47.428 219.254 47.5725V48.3778ZM218.016 42.8555H217.68L217.807 42.821H216.997C216.909 42.8048 216.818 42.8048 216.73 42.821C216.423 42.8249 216.116 42.794 215.816 42.7289V42.6369C215.827 42.3666 215.858 42.0975 215.908 41.8316C215.951 41.611 215.982 41.3882 216.001 41.1643V40.6121C215.996 40.6013 215.993 40.5895 215.993 40.5775C215.993 40.5656 215.996 40.5538 216.001 40.543C216.001 40.5416 216.001 40.5393 216.001 40.5362C216.002 40.5328 216.002 40.5285 216.003 40.5231L216.009 40.4866L216.025 40.3935C216.045 40.2744 216.077 40.0856 216.117 39.8297L216.29 38.5297C216.402 37.6726 216.547 37.0071 216.742 36.1051C216.809 35.7963 216.882 35.4597 216.962 35.0782C217.007 34.7706 217.089 34.4694 217.205 34.1809L217.367 33.7092C217.4 33.6344 217.429 33.5236 217.456 33.4215C217.495 33.272 217.53 33.1411 217.564 33.1684C217.584 33.1846 217.62 33.1922 217.659 33.2004C217.729 33.2153 217.807 33.2319 217.807 33.3065L217.838 33.4943C217.881 33.7576 217.909 33.9339 217.935 34.1107C217.988 34.4695 218.03 34.83 218.156 35.9231L218.259 36.8155L218.502 38.4722C218.541 38.7622 218.564 39.0541 218.571 39.3465C218.641 39.8873 218.641 40.1749 218.641 40.1749V40.5545C218.65 40.6732 218.65 40.7925 218.641 40.9112C218.71 41.4174 218.71 41.728 218.71 41.8661V42.8555H218.351C218.24 42.8717 218.127 42.8717 218.016 42.8555Z" fill="#1A1A1A"/>
<path d="M223.678 34.5835V39.8182C223.686 39.9446 223.686 40.0715 223.678 40.1979V40.3704C223.657 40.6692 223.657 40.969 223.678 41.2678V44.6733C223.662 44.9415 223.662 45.2104 223.678 45.4786V45.7432C223.667 45.8388 223.667 45.9352 223.678 46.0308V46.1689C223.663 46.3412 223.663 46.5143 223.678 46.6866V47.4919C223.663 47.6642 223.663 47.8374 223.678 48.0097V48.6194C223.698 48.7606 223.698 48.9039 223.678 49.0451C223.69 49.0825 223.69 49.1228 223.678 49.1601C223.644 49.1959 223.602 49.223 223.556 49.239C223.509 49.2551 223.46 49.2596 223.411 49.2522H223.238C223.049 49.2389 222.859 49.2389 222.67 49.2522C222.545 49.2216 222.424 49.1752 222.311 49.1141C222.206 48.7835 222.174 48.4341 222.219 48.0902V46.7786C222.228 46.6139 222.228 46.4487 222.219 46.2839V45.6857C222.234 45.3944 222.234 45.1026 222.219 44.8113V32.1215C222.219 31.9834 222.462 31.9029 223.052 31.9029H223.793V34.5835H223.678Z" fill="#1A1A1A"/>
<path d="M227.012 32.7888C226.985 32.7251 226.962 32.6598 226.943 32.5932L226.931 32.6852C226.928 32.6201 226.928 32.5548 226.931 32.4896C226.787 32.3703 226.616 32.2874 226.433 32.2481H226.074C225.971 32.2302 225.865 32.2302 225.762 32.2481C225.519 32.2826 225.519 32.3516 225.519 32.4206V34.3189C225.53 34.4145 225.53 34.511 225.519 34.6065V37.1951C225.532 37.4404 225.532 37.6862 225.519 37.9314V46.8362C225.503 46.9392 225.503 47.0438 225.519 47.1468C225.504 47.2575 225.504 47.3697 225.519 47.4804V47.9061C225.511 47.9363 225.511 47.968 225.519 47.9982C225.533 48.228 225.533 48.4586 225.519 48.6884C225.503 48.853 225.503 49.0186 225.519 49.1832C225.519 49.2292 225.542 49.3212 225.854 49.3212H226.977V46.0538C226.977 44.2131 227.001 42.7405 227.07 41.6705V39.3695C227.058 39.1206 227.089 38.8715 227.163 38.6332V38.7713L227.452 39.9793C227.455 40.0406 227.455 40.102 227.452 40.1634C227.476 40.2464 227.507 40.3272 227.545 40.405C227.614 40.497 227.614 40.6005 227.614 40.6696C227.623 40.7908 227.646 40.9106 227.684 41.0262C227.721 41.1419 227.745 41.2616 227.753 41.3829C227.838 41.5476 227.904 41.7212 227.95 41.9006L228.043 42.2342C228.251 42.9705 228.425 43.4883 228.541 43.7989L228.923 44.8228L229.258 45.7432L229.617 46.7211L229.976 47.7681C229.98 47.7798 229.984 47.7938 229.988 47.8098L229.99 47.821L229.996 47.8498C230.013 47.9276 230.035 48.0349 230.092 48.1477C230.11 48.1833 230.128 48.2183 230.146 48.2522C230.21 48.372 230.266 48.4787 230.266 48.5504C230.305 48.6644 230.351 48.7758 230.405 48.884C230.444 48.997 230.502 49.1022 230.578 49.1947C230.632 49.2553 230.7 49.3026 230.775 49.3327C230.958 49.4004 231.149 49.4467 231.343 49.4708H231.841C231.979 49.4478 231.979 49.3787 231.979 49.3787C232.046 49.2541 232.086 49.1169 232.095 48.9761C232.081 48.9077 232.081 48.8373 232.095 48.769V48.3433C232.111 48.2172 232.111 48.0897 232.095 47.9636C232.109 47.8298 232.109 47.6948 232.095 47.561V45.7087C232.086 45.5516 232.086 45.3941 232.095 45.237V44.7423C232.113 44.4012 232.113 44.0594 232.095 43.7184V43.3157C232.111 43.1243 232.111 42.9319 232.095 42.7405C232.111 42.5913 232.111 42.4409 232.095 42.2918V42.0502C232.085 41.9622 232.085 41.8735 232.095 41.7855C232.095 41.6935 232.022 38.848 231.875 33.249C231.871 33.025 231.848 32.8018 231.806 32.5817C231.82 32.5018 231.82 32.42 231.806 32.3401C231.822 32.2759 231.822 32.2086 231.806 32.1445C231.783 32.0295 231.644 31.9604 231.401 31.9604L230.926 31.8914H230.752C230.509 31.9374 230.393 32.018 230.393 32.11V32.4896C230.376 32.5693 230.376 32.6516 230.393 32.7313C230.384 32.8 230.384 32.8696 230.393 32.9383C230.409 33.0104 230.409 33.0849 230.393 33.1569L230.59 39.4386C230.581 39.5496 230.581 39.6612 230.59 39.7722C230.6 39.8832 230.6 39.9948 230.59 40.1058V41.9696C230.575 42.2609 230.575 42.5527 230.59 42.844C230.606 43.0969 230.606 43.3505 230.59 43.6033C230.596 43.6914 230.596 43.7798 230.59 43.8679V44.0405C230.582 44.0862 230.582 44.1329 230.59 44.1786V44.6733C230.123 43.7618 229.762 42.8008 229.513 41.8086L229.374 41.4059C229.309 41.2174 229.255 41.0253 229.212 40.8307C229.109 40.5648 229.043 40.2861 229.015 40.0023C228.935 39.5592 228.815 39.1241 228.656 38.7023L228.413 37.8969C228.274 37.5633 228.274 37.3447 228.274 37.3447L227.939 36.0446C227.856 35.7592 227.786 35.5498 227.733 35.3912C227.675 35.2175 227.638 35.1049 227.626 35.0207C227.617 34.9579 227.597 34.8933 227.577 34.8256C227.545 34.7197 227.51 34.6063 227.51 34.48C227.489 34.3513 227.458 34.2244 227.417 34.1003C227.396 34.0407 227.375 33.9841 227.355 33.9307C227.279 33.7266 227.221 33.5703 227.221 33.4791C227.18 33.3628 227.149 33.2436 227.128 33.1224C227.106 33.0475 227.08 32.9851 227.058 32.9328C227.032 32.8725 227.012 32.8257 227.012 32.7888Z" fill="#1A1A1A"/>
<path fill-rule="evenodd" clip-rule="evenodd" d="M238.776 38.5066V35.3198C238.762 35.1629 238.762 35.005 238.776 34.8481C238.76 34.6413 238.76 34.4336 238.776 34.2268V31.7418C238.776 31.6728 238.846 31.6268 239.019 31.5807H239.089C239.177 31.5909 239.267 31.5909 239.355 31.5807C239.444 31.5715 239.533 31.5715 239.621 31.5807H240.119C240.269 31.5639 240.421 31.5639 240.571 31.5807C240.666 31.597 240.757 31.612 240.842 31.6261L240.897 31.6352C241.146 31.6762 241.346 31.7091 241.486 31.7418C241.75 31.7764 242.007 31.8501 242.25 31.9604C242.423 32.015 242.579 32.1142 242.701 32.248C242.853 32.3642 242.969 32.5194 243.037 32.6967C243.106 32.9128 243.145 33.1373 243.153 33.364C243.19 33.4655 243.221 33.5692 243.246 33.6746V34.0543C243.292 34.3593 243.323 34.6665 243.338 34.9747C243.338 35.1932 243.338 35.5499 243.408 36.0446V37.3331C243.408 37.4743 243.393 37.6536 243.375 37.8762C243.354 38.1434 243.328 38.4732 243.315 38.8748L243.246 39.6571C243.186 39.8766 243.14 40.0994 243.107 40.3244C243.107 40.369 243.078 40.4279 243.045 40.4951C243.027 40.5319 243.007 40.5713 242.991 40.612C242.974 40.6528 242.958 40.6907 242.943 40.7262C242.915 40.7909 242.89 40.8476 242.875 40.8996C242.803 41.0252 242.694 41.1257 242.562 41.1873C242.472 41.3034 242.367 41.4077 242.25 41.4979L241.845 41.7625C241.729 41.8315 241.671 41.9006 241.671 41.9351C241.671 41.9394 241.671 41.9427 241.671 41.9452C241.671 41.9476 241.672 41.9493 241.673 41.9508C241.674 41.9524 241.675 41.9536 241.678 41.9549C241.68 41.9562 241.684 41.9576 241.688 41.9595C241.706 41.9667 241.74 41.9811 241.81 42.0271L242.122 42.1882C242.198 42.2151 242.268 42.254 242.331 42.3032C242.48 42.4149 242.61 42.5511 242.713 42.7059C242.818 42.9109 242.9 43.127 242.956 43.3502C243.031 43.6302 243.089 43.9145 243.13 44.2015C243.138 44.351 243.138 44.5008 243.13 44.6502C243.123 44.7191 243.123 44.7885 243.13 44.8573V45.306C243.121 45.3438 243.121 45.3832 243.13 45.421V45.5591C243.117 45.5963 243.117 45.6369 243.13 45.6741V45.8352C243.119 45.8922 243.119 45.9508 243.13 46.0078V46.3414C243.114 46.4598 243.114 46.5797 243.13 46.6981V47.699C243.119 47.7444 243.119 47.7917 243.13 47.8371C243.07 47.9743 243.024 48.1169 242.991 48.2627C242.91 48.4466 242.796 48.6143 242.655 48.7574C242.184 49.1624 241.576 49.3761 240.953 49.3557C240.729 49.3698 240.505 49.3698 240.281 49.3557C240.147 49.3412 240.011 49.3412 239.876 49.3557C239.734 49.3425 239.59 49.3425 239.448 49.3557C239.216 49.3398 238.984 49.3398 238.753 49.3557C238.721 49.3147 238.697 49.2678 238.684 49.2176C238.699 49.0992 238.699 48.9794 238.684 48.861V48.4353C238.674 48.355 238.674 48.274 238.684 48.1937C238.674 48.1327 238.674 48.0706 238.684 48.0096V46.8591C238.697 46.7792 238.697 46.6975 238.684 46.6175V46.2609C238.7 46.1503 238.7 46.0379 238.684 45.9272C238.698 45.8011 238.698 45.6737 238.684 45.5476C238.675 45.5255 238.675 45.5007 238.684 45.4786V45.2945C238.675 45.2566 238.675 45.2173 238.684 45.1794C238.675 45.1145 238.675 45.0488 238.684 44.9839C238.669 44.9155 238.669 44.8451 238.684 44.7768V44.5697C238.679 44.5608 238.677 44.5513 238.676 44.5416L238.676 44.5352C238.676 44.5322 238.676 44.5293 238.676 44.5264C238.677 44.523 238.677 44.5197 238.678 44.5164C238.679 44.511 238.681 44.5057 238.684 44.5007V42.982C238.669 42.7445 238.669 42.5063 238.684 42.2687C238.668 42.1426 238.668 42.0151 238.684 41.8891V41.0607C238.694 40.9574 238.694 40.8534 238.684 40.7501C238.668 40.5049 238.668 40.259 238.684 40.0138L238.776 38.5066ZM240.293 33.7321V35.1817C240.284 35.3004 240.284 35.4197 240.293 35.5384V36.9995C240.293 37.9276 240.27 38.4261 240.223 38.4951C240.216 38.5408 240.216 38.5875 240.223 38.6332V38.7482C240.233 38.8746 240.233 39.0015 240.223 39.1279C240.215 39.2389 240.215 39.3505 240.223 39.4615V40.1518C240.212 40.3242 240.212 40.4972 240.223 40.6695C240.233 40.7806 240.233 40.8922 240.223 41.0032C240.347 41.0035 240.468 40.9801 240.582 40.9342C240.716 40.8768 240.838 40.7948 240.941 40.6926C241.112 40.5756 241.245 40.4117 241.323 40.2209C241.489 40.0135 241.632 39.7899 241.752 39.5536C241.875 38.986 241.949 38.6025 241.972 38.4031C241.977 38.3303 241.977 38.2573 241.972 38.1845V35.8375C241.963 35.7265 241.963 35.6149 241.972 35.5039V34.9632C241.972 34.687 241.972 34.4684 241.902 34.3534C241.857 34.2784 241.871 34.2132 241.886 34.1418C241.894 34.1037 241.902 34.0638 241.902 34.0198V33.7782C241.891 33.7096 241.891 33.6397 241.902 33.5711V33.502C241.773 33.3613 241.629 33.2341 241.474 33.1224C241.324 33.0588 241.162 33.0275 240.999 33.0303C240.911 33.0141 240.821 33.0141 240.733 33.0303C240.637 33.0162 240.539 33.0162 240.444 33.0303V33.7436L240.293 33.7321ZM242.018 45.0529C241.995 44.6116 241.889 44.1786 241.706 43.7758C241.657 43.6317 241.573 43.5014 241.462 43.3962C241.378 43.306 241.27 43.242 241.15 43.2121C240.909 43.1 240.65 43.0299 240.386 43.005C240.305 43.34 240.281 43.6862 240.316 44.029V48.1822H241.011C241.199 48.1442 241.372 48.0522 241.509 47.9176C241.705 47.7323 241.838 47.4911 241.891 47.2273C242.024 46.8148 242.086 46.3832 242.076 45.9503L242.018 45.0529Z" fill="#1A1A1A"/>
<path d="M246.545 34.5835H246.627V31.9029H245.909C245.318 31.9029 245.075 31.9834 245.075 32.1215V44.8113C245.092 45.1025 245.092 45.3945 245.075 45.6857V46.2839C245.085 46.4487 245.085 46.6139 245.075 46.7786V48.0902C245.033 48.4342 245.064 48.7832 245.168 49.1141C245.281 49.1741 245.402 49.2205 245.527 49.2522C245.719 49.2385 245.913 49.2385 246.106 49.2522H246.279C246.328 49.2596 246.377 49.2551 246.424 49.239C246.47 49.223 246.512 49.1959 246.545 49.1601C246.558 49.1228 246.558 49.0825 246.545 49.0451C246.566 48.9039 246.566 48.7606 246.545 48.6194V48.0097C246.531 47.8374 246.531 47.6642 246.545 47.4919V46.6866C246.531 46.5143 246.531 46.3412 246.545 46.1689V46.0308C246.535 45.9352 246.535 45.8388 246.545 45.7432V45.4786C246.53 45.2104 246.53 44.9415 246.545 44.6733V41.2678C246.525 40.969 246.525 40.6692 246.545 40.3704V40.1979C246.554 40.0715 246.554 39.9446 246.545 39.8182V34.5835Z" fill="#1A1A1A"/>
<path d="M249.926 32.064C249.915 32.1326 249.915 32.2025 249.926 32.2711C249.91 32.3662 249.91 32.4635 249.926 32.5587V32.9383C249.917 33.0878 249.917 33.2376 249.926 33.387V38.2536C249.912 38.3412 249.912 38.4306 249.926 38.5182V39.1855C249.993 39.0504 250.075 38.9231 250.17 38.8058C250.252 38.6952 250.322 38.5755 250.378 38.4492C250.48 38.2163 250.569 37.9782 250.644 37.7359L250.888 37.0456L251.131 36.3783C251.131 36.3093 251.131 36.2057 251.223 36.0677C251.239 35.955 251.262 35.8436 251.293 35.734C251.392 35.3418 251.519 34.9572 251.675 34.5835C251.675 34.5014 251.722 34.3783 251.779 34.2309C251.801 34.1719 251.825 34.1084 251.849 34.0428C251.93 33.8127 252.115 33.3755 252.184 33.2145L252.705 31.8109C252.705 31.7418 252.879 31.6958 253.087 31.6728H253.331C253.531 31.6595 253.732 31.6595 253.933 31.6728C254.176 31.7418 254.292 31.7879 254.292 31.8224C254.245 31.961 254.187 32.0957 254.118 32.225L253.782 33.0764L253.423 33.9508L253.284 34.3534L253.215 34.549C253.174 34.6336 253.143 34.7223 253.122 34.8136C253.105 34.9059 253.073 34.995 253.03 35.0782V35.3198C253.025 35.3734 253.025 35.4273 253.03 35.4809C252.992 35.6591 252.925 35.83 252.833 35.9871C252.824 36.0674 252.824 36.1484 252.833 36.2287C252.824 36.3017 252.8 36.3722 252.763 36.4358L252.731 36.5387C252.678 36.7059 252.638 36.8343 252.59 36.9305L251.976 38.9209L251.71 39.7262C251.688 39.9318 251.616 40.1291 251.501 40.3014C251.489 40.3388 251.489 40.3791 251.501 40.4165V40.5315C251.501 40.5545 251.501 40.7501 251.617 40.9802C251.685 41.115 251.713 41.23 251.736 41.3254C251.753 41.3927 251.767 41.4503 251.791 41.4979L252.08 42.4874C252.146 42.6415 252.204 42.799 252.254 42.9591L252.393 43.4538C252.458 43.7722 252.563 44.0814 252.705 44.3741C252.721 44.5264 252.752 44.6767 252.798 44.8228C252.828 44.8895 252.851 44.9589 252.867 45.0299C252.864 45.0951 252.864 45.1604 252.867 45.2255C252.983 45.5822 253.087 45.9158 253.157 46.2264C253.157 46.2906 253.191 46.3826 253.235 46.5026C253.254 46.5548 253.275 46.6123 253.296 46.6751C253.35 46.8353 253.376 46.9474 253.395 47.0325L253.396 47.0338C253.401 47.0582 253.407 47.0803 253.412 47.1008L253.632 47.8601C253.765 48.3613 253.931 48.8532 254.13 49.3327C254.13 49.4018 253.991 49.4478 253.724 49.4708C253.667 49.4613 253.608 49.4613 253.551 49.4708H252.949C252.741 49.4616 252.536 49.4308 252.335 49.3787C252.29 49.1282 252.225 48.8819 252.138 48.6424C252.069 48.4464 252.011 48.2467 251.964 48.0442C251.872 47.7105 251.756 47.2158 251.629 46.5716L251.443 45.9273C251.357 45.6437 251.277 45.4372 251.232 45.322C251.217 45.2831 251.206 45.2545 251.2 45.237C251.195 45.2213 251.188 45.1979 251.18 45.165C251.172 45.1355 251.163 45.0983 251.152 45.0522C251.12 44.9238 251.071 44.7261 250.992 44.4317C250.942 44.2074 250.873 43.9952 250.813 43.8079C250.79 43.7357 250.768 43.6673 250.749 43.6033C250.65 43.282 250.569 42.9555 250.505 42.6254C250.436 42.4183 250.366 42.1997 250.297 41.9581C250.228 41.7165 250.077 41.6705 250.008 41.6705C250.024 41.9617 250.024 42.2537 250.008 42.5449V45.7777C250.008 46.0423 250.008 46.1114 250.077 46.376V46.8017C250.064 46.9433 250.064 47.0858 250.077 47.2273V48.4814C250.094 48.6689 250.094 48.8576 250.077 49.0451C250.077 49.2177 249.938 49.2867 249.649 49.3097C249.393 49.3814 249.127 49.4125 248.861 49.4018C248.595 49.4018 248.456 49.3097 248.433 49.2177C248.424 49.1818 248.422 49.1739 248.423 49.1735C248.423 49.1734 248.424 49.1739 248.424 49.1745C248.427 49.1774 248.433 49.1832 248.433 49.1487C248.439 49.0606 248.439 48.9721 248.433 48.884V46.468C248.449 46.3574 248.449 46.245 248.433 46.1344C248.424 45.985 248.424 45.8351 248.433 45.6857V44.3972C248.418 44.1443 248.418 43.8907 248.433 43.6378C248.418 43.3926 248.418 43.1467 248.433 42.9015V42.5679C248.418 42.4649 248.418 42.3603 248.433 42.2573V41.8086C248.447 41.6747 248.447 41.5397 248.433 41.4059C248.418 41.3376 248.418 41.2671 248.433 41.1988V40.9112C248.443 40.8814 248.443 40.8489 248.433 40.8192V40.7501C248.417 40.5625 248.417 40.374 248.433 40.1864V36.9305C248.447 36.8352 248.447 36.7382 248.433 36.6429C248.45 36.4131 248.45 36.1824 248.433 35.9526V33.1799C248.419 33.0461 248.419 32.9111 248.433 32.7773V32.5702C248.426 32.5322 248.426 32.4932 248.433 32.4551V32.3631C248.455 32.2607 248.455 32.1548 248.433 32.0525V31.9834C248.433 31.9834 248.549 31.8914 248.815 31.8684H248.977C249.034 31.8785 249.093 31.8785 249.151 31.8684C249.354 31.866 249.556 31.8892 249.753 31.9374C249.822 31.9374 249.869 32.0065 249.869 32.0295L249.926 32.064Z" fill="#1A1A1A"/>
<path d="M255.16 48.6654C255.166 48.7458 255.166 48.8266 255.16 48.907L255.23 49.1026C255.222 49.1328 255.222 49.1644 255.23 49.1946C255.435 49.3066 255.667 49.3622 255.901 49.3557C256.02 49.3699 256.141 49.3699 256.26 49.3557H258.877C258.981 49.3427 259.086 49.3427 259.189 49.3557H259.433C259.596 49.3657 259.76 49.334 259.907 49.2636C260 49.2636 260 48.953 260 48.4353C260 47.9176 259.954 47.63 259.838 47.63H257.094C256.975 47.6136 256.854 47.6136 256.735 47.63V45.5476C256.745 45.4212 256.745 45.2943 256.735 45.1679V42.5333C256.758 42.4643 256.827 42.4643 256.827 42.4643H258.24C258.424 42.4724 258.608 42.4491 258.784 42.3953C258.854 42.3953 258.923 42.2802 258.923 42.0386V41.1988C258.9 40.9802 258.807 40.8421 258.807 40.8421C258.668 40.771 258.512 40.7392 258.356 40.7501H256.746V34.595C256.756 34.4763 256.756 34.3571 256.746 34.2383V33.8587C256.759 33.8018 256.759 33.743 256.746 33.6861V33.3755C256.758 33.3459 256.758 33.313 256.746 33.2834C256.781 33.3525 257.499 33.3525 258.043 33.3525C258.194 33.3444 258.344 33.3444 258.495 33.3525H258.969C259.035 33.3634 259.101 33.3634 259.166 33.3525H259.444C259.513 33.1371 259.537 32.91 259.514 32.6852V32.5241C259.523 32.4747 259.523 32.424 259.514 32.3746C259.504 32.3213 259.504 32.2667 259.514 32.2135V32.0984C259.387 32.0401 259.248 32.0088 259.108 32.0064H258.68C258.522 31.9913 258.363 31.9913 258.205 32.0064H256.422C255.999 31.9961 255.577 32.027 255.16 32.0984V33.1339C255.146 33.2369 255.146 33.3414 255.16 33.4445C255.144 33.7357 255.144 34.0276 255.16 34.3189V43.2926C255.178 43.4417 255.178 43.5923 255.16 43.7413C255.175 43.8828 255.175 44.0255 255.16 44.167C255.176 44.3392 255.176 44.5125 255.16 44.6847V48.3778C255.169 48.4734 255.169 48.5698 255.16 48.6654Z" fill="#1A1A1A"/>
</svg>
