<svg width="26" height="25" viewBox="0 0 26 25" fill="none" xmlns="http://www.w3.org/2000/svg">
<path d="M12.5 24.5294C9.15855 24.5294 8.70885 24.5149 7.3461 24.454C6.31012 24.433 5.28477 24.2406 4.31172 23.8844C3.48057 23.5781 2.72558 23.0956 2.09863 22.4698C1.46384 21.8603 0.971245 21.1183 0.655934 20.2967C0.29394 19.3447 0.0975946 18.3378 0.0754052 17.3196C0.0145359 16.0122 0 15.5771 0 12.2647C0 8.95232 0.0145359 8.51624 0.0754052 7.20801C0.0979152 6.1898 0.29425 5.18293 0.655934 4.23087C0.9714 3.40986 1.46399 2.6685 2.09863 2.05956C2.72528 1.43303 3.48032 0.949811 4.31172 0.643215C5.28503 0.288065 6.31025 0.0959128 7.3461 0.0744967C8.68068 0.0145359 9.12494 0 12.5018 0C15.8787 0 16.3175 0.0145359 17.6539 0.0744967C18.6899 0.0954554 19.7152 0.287938 20.6883 0.644124C21.52 0.950815 22.2755 1.43365 22.9032 2.05956C23.5379 2.66883 24.031 3.41006 24.3477 4.23087C24.7094 5.18293 24.9057 6.1898 24.9282 7.20801C24.9891 8.51624 25.0036 8.95141 25.0036 12.2647C25.0036 15.578 24.9891 16.0104 24.9282 17.3205C24.9068 18.3388 24.7104 19.3459 24.3477 20.2976C24.0322 21.1189 23.54 21.8608 22.9059 22.4707C22.2778 23.0959 21.5224 23.5784 20.691 23.8853C19.718 24.2415 18.6926 24.434 17.6566 24.4549C16.3257 24.5149 15.8832 24.5294 12.5 24.5294ZM12.5 2.20946C9.16764 2.20946 8.77517 2.22218 7.44876 2.28033C6.65702 2.28909 5.87249 2.43193 5.12846 2.70278C4.58684 2.89794 4.09554 3.21141 3.69031 3.62036C3.27675 4.01399 2.95749 4.49599 2.75638 5.03034C2.48237 5.75929 2.33668 6.53018 2.32575 7.30885C2.26579 8.60709 2.25307 8.99411 2.25307 12.2647C2.25307 15.5744 2.26579 15.9568 2.32575 17.2205C2.33504 17.9988 2.48079 18.7694 2.75638 19.4972C2.95681 20.0319 3.27617 20.5141 3.69031 20.9072C4.09609 21.3155 4.58723 21.6288 5.12846 21.8248C5.87249 22.0957 6.65702 22.2385 7.44876 22.2473C8.77153 22.3054 9.16764 22.3181 12.5 22.3181C15.8324 22.3181 16.2248 22.3054 17.5512 22.2473C18.3436 22.2386 19.1287 22.0958 19.8734 21.8248C20.4142 21.6292 20.9049 21.3158 21.3097 20.9072C21.7238 20.5137 22.0437 20.0317 22.2454 19.4972C22.5198 18.769 22.6655 17.9987 22.6761 17.2205C22.736 15.955 22.7487 15.5716 22.7487 12.2647C22.7487 8.95777 22.736 8.57257 22.6761 7.30885C22.6669 6.53001 22.5212 5.75881 22.2454 5.03034C22.0437 4.49586 21.7238 4.01387 21.3097 3.62036C20.9049 3.21178 20.4142 2.89835 19.8734 2.70278C19.1283 2.43349 18.3434 2.2907 17.5512 2.28033C16.2285 2.22127 15.8324 2.20946 12.5 2.20946ZM12.5 18.5624C10.8144 18.5762 9.19208 17.921 7.98886 16.7404C6.78563 15.5598 6.0997 13.9503 6.08147 12.2647C6.12135 10.5888 6.8151 8.99504 8.01446 7.82388C9.21382 6.65272 10.8237 5.99709 12.5 5.99709C14.1763 5.99709 15.7862 6.65272 16.9855 7.82388C18.1849 8.99504 18.8786 10.5888 18.9185 12.2647C18.9003 13.9503 18.2144 15.5598 17.0111 16.7404C15.8079 17.921 14.1856 18.5762 12.5 18.5624ZM12.5 8.17647C11.695 8.19203 10.9125 8.44497 10.2506 8.90355C9.58881 9.36213 9.07713 10.0059 8.77979 10.7542C8.48244 11.5025 8.41267 12.3219 8.57923 13.1096C8.74579 13.8974 9.14126 14.6184 9.71603 15.1823C10.2908 15.7462 11.0193 16.1278 11.8101 16.2792C12.6009 16.4306 13.4188 16.3452 14.1612 16.0336C14.9037 15.722 15.5376 15.1981 15.9834 14.5276C16.4292 13.8571 16.6671 13.0699 16.6673 12.2647C16.6555 11.1704 16.2102 10.1253 15.4289 9.35893C14.6477 8.59251 13.5944 8.16726 12.5 8.17647ZM19.1693 7.18893C18.8795 7.1832 18.5978 7.09202 18.3596 6.92682C18.1214 6.76162 17.9373 6.52976 17.8304 6.26032C17.7234 5.99089 17.6985 5.69588 17.7586 5.4123C17.8187 5.12872 17.9612 4.86921 18.1682 4.66631C18.3752 4.46342 18.6376 4.32618 18.9223 4.27181C19.207 4.21744 19.5015 4.24836 19.7687 4.3607C20.0359 4.47304 20.264 4.66178 20.4244 4.90326C20.5847 5.14474 20.6702 5.4282 20.6701 5.71808C20.6658 6.11204 20.5053 6.48819 20.2239 6.76396C19.9426 7.03972 19.5632 7.19256 19.1693 7.18893Z" fill="white"/>
</svg>
