<svg width="25" height="29" viewBox="0 0 25 29" fill="none" xmlns="http://www.w3.org/2000/svg">
<path d="M20.9107 28.6187H4.09459C3.06333 28.6684 2.05423 28.3084 1.28723 27.6173C0.52024 26.9261 0.057544 25.9598 0 24.929L0 16.496C0.0610236 15.4681 0.525416 14.5058 1.29219 13.8184C2.05896 13.131 3.0661 12.7741 4.09459 12.8254H20.9107C21.9394 12.7748 22.9464 13.1327 23.7123 13.8212C24.4783 14.5098 24.9411 15.4731 25 16.5013V24.9343C24.9419 25.9635 24.4796 26.9282 23.7137 27.6182C22.9479 28.3083 21.9404 28.6678 20.9107 28.6187ZM20.4486 17.8411C19.9448 17.833 19.4497 17.9722 19.024 18.2418C18.6819 18.4629 18.424 18.7925 18.2916 19.1777C18.1253 19.7205 18.0505 20.2872 18.07 20.8545V23.2129C18.07 25.0965 19.219 25.9402 20.3521 25.9402C20.6582 25.9429 20.9614 25.8808 21.2418 25.758C21.5222 25.6353 21.7735 25.4546 21.9791 25.2279C22.2133 24.9514 22.3793 24.6238 22.4638 24.2714C22.5483 23.9191 22.5489 23.5518 22.4657 23.1991L21.1619 23.2129V24.0789C21.1534 24.2623 21.0736 24.4352 20.9396 24.5607C20.8056 24.6862 20.6279 24.7544 20.4443 24.7509H20.1963C20.0131 24.7558 19.8354 24.6877 19.7023 24.5617C19.5691 24.4358 19.4914 24.2621 19.4861 24.0789V22.2346H22.471V21.1651C22.4797 20.4951 22.4503 19.8252 22.383 19.1586C22.2744 18.7431 22.0191 18.381 21.6644 18.139C21.3096 17.897 20.8793 17.7916 20.4528 17.8422L20.4486 17.8411ZM6.95752 18.2905L6.966 23.0009C6.966 23.2246 6.966 23.4313 6.966 23.6178C6.966 24.0174 6.966 24.3322 6.9766 24.4955C6.9766 24.5421 6.98402 24.5887 6.9872 24.6364C6.96732 24.8383 6.99535 25.042 7.06903 25.2309C7.1427 25.4199 7.25992 25.5888 7.41118 25.7239C7.62844 25.8627 7.88276 25.9322 8.14042 25.9232C8.5237 25.921 8.90047 25.8239 9.23708 25.6406C9.5737 25.4573 9.8597 25.1935 10.0695 24.8728V25.8511H11.4612V18.2905H9.72823V23.0296C9.72823 23.3136 9.73565 23.5351 9.74095 23.7122C9.75748 23.871 9.7532 24.0314 9.72823 24.1891C9.67796 24.3082 9.59686 24.4118 9.49327 24.4891C9.38968 24.5664 9.26736 24.6147 9.1389 24.629C9.00322 24.629 8.82091 24.5601 8.7022 24.2305C8.67526 24.0484 8.66992 23.8637 8.6863 23.6804C8.6863 23.5161 8.69478 23.3126 8.69478 23.0709V18.2905H6.95752ZM14.0592 25.1399C14.4798 25.5745 15.0409 25.8457 15.6428 25.9052C15.8513 25.9037 16.0556 25.8461 16.2341 25.7382C16.4126 25.6304 16.5588 25.4764 16.6571 25.2925C16.9158 24.8122 17.0407 24.2711 17.0186 23.7259V19.7649C17.0186 18.7166 16.4632 18.0117 15.6406 18.0117C15.125 18.0454 14.6337 18.2438 14.2394 18.5778L14.2457 15.6438H12.5074V25.7971L13.9288 25.7685L14.0655 25.142L14.0592 25.1399ZM1.74468 15.6375V16.9359H3.48088V25.8533H5.21602V16.9656H7.30306V15.6438L1.74468 15.6375ZM14.9718 24.6078C14.7928 24.6234 14.6147 24.5696 14.4742 24.4575C14.3338 24.3455 14.2417 24.1837 14.2171 24.0058V19.5773C14.2577 19.4068 14.3546 19.255 14.4921 19.1464C14.6296 19.0378 14.7998 18.9787 14.975 18.9787C15.1502 18.9787 15.3203 19.0378 15.4579 19.1464C15.5954 19.255 15.6923 19.4068 15.7329 19.5773V24.0058C15.7072 24.1845 15.614 24.3466 15.4724 24.4586C15.3308 24.5706 15.1516 24.624 14.9718 24.6078ZM21.1481 20.9319H19.5031L19.5095 20.0172C19.5158 19.8176 19.5998 19.6284 19.7435 19.4899C19.8872 19.3513 20.0793 19.2743 20.279 19.2752H20.385C20.5881 19.2692 20.7853 19.3439 20.9335 19.4829C21.0817 19.622 21.1688 19.8141 21.1757 20.0172L21.1481 20.9308V20.9319ZM12.2085 11.209C11.8292 11.2178 11.4515 11.1564 11.0945 11.0277C10.8058 10.9228 10.5556 10.7328 10.3769 10.4829C10.1982 10.2201 10.0758 9.92306 10.0176 9.61057C9.93359 9.0953 9.8981 8.57329 9.9116 8.05139V5.96646C9.89257 5.37096 9.95969 4.77583 10.1109 4.19952C10.2283 3.79129 10.4767 3.433 10.8179 3.17985C11.2007 2.91011 11.6622 2.77514 12.1301 2.79615C12.5293 2.79033 12.9248 2.87399 13.2875 3.041C13.5827 3.19181 13.8344 3.41545 14.0189 3.69075C14.1975 3.9347 14.3228 4.2135 14.3867 4.50903C14.4634 4.93094 14.4954 5.35977 14.4821 5.78839V7.78534C14.5 8.32312 14.4681 8.8614 14.3867 9.39328C14.3348 9.73523 14.207 10.0612 14.0126 10.3472C13.8317 10.6323 13.5716 10.8585 13.2642 10.9981C12.9345 11.1514 12.5729 11.2237 12.2096 11.209H12.2085ZM12.1958 4.09989C11.9874 4.1049 11.7894 4.19223 11.6452 4.34279C11.501 4.49335 11.4223 4.69489 11.4263 4.90333V9.09014C11.4224 9.19353 11.4395 9.29663 11.4764 9.39328C11.5133 9.48992 11.5693 9.57814 11.6411 9.65264C11.7129 9.72714 11.799 9.7864 11.8942 9.82688C11.9894 9.86736 12.0918 9.88822 12.1953 9.88822C12.2987 9.88822 12.4011 9.86736 12.4963 9.82688C12.5915 9.7864 12.6776 9.72714 12.7494 9.65264C12.8212 9.57814 12.8772 9.48992 12.9141 9.39328C12.951 9.29663 12.9681 9.19353 12.9643 9.09014V4.90439C12.9661 4.69694 12.8869 4.49696 12.7436 4.34693C12.6003 4.19691 12.4042 4.10867 12.1969 4.10095L12.1958 4.09989ZM7.88815 11.2016H6.05762V5.1768L3.76601 0H5.74175L6.9077 3.84126L8.05563 0.0116595H10.0483L7.89769 5.17574L7.88921 11.2047L7.88815 11.2016ZM16.9126 11.104C16.6595 11.1105 16.41 11.0427 16.195 10.909C16.0094 10.7841 15.8625 10.6097 15.771 10.4055C15.6876 10.1951 15.6306 9.97502 15.6014 9.75049C15.5929 9.60633 15.5728 9.18447 15.5728 8.39481V3.09506H17.1553V9.21627C17.1625 9.37944 17.2328 9.53342 17.3515 9.6456C17.4702 9.75778 17.628 9.81935 17.7913 9.81726C17.8733 9.82096 17.9552 9.80826 18.0323 9.77992C18.1094 9.75158 18.18 9.70817 18.2401 9.65221C18.3002 9.59626 18.3486 9.52889 18.3823 9.45404C18.4161 9.37919 18.4346 9.29836 18.4368 9.21627V3.09612H19.9599V10.962H18.0266L18.07 10.3059C17.9572 10.5401 17.7891 10.7435 17.5803 10.8984C17.3864 11.0381 17.1526 11.1117 16.9136 11.1083L16.9126 11.104Z" fill="#FEFEFE"/>
</svg>
